<?xml version="1.0" encoding="iso-8859-1"?>
<!-- Uploaded to: SVG Repo, www.svgrepo.com, Generator: SVG Repo Mixer Tools -->
<svg version="1.1" id="Layer_1" xmlns="http://www.w3.org/2000/svg" xmlns:xlink="http://www.w3.org/1999/xlink" 
	 viewBox="0 0 504.123 504.123" xml:space="preserve">
<circle style="fill:#FD8469;" cx="252.062" cy="252.062" r="252.062"/>
<path style="fill:#FFFFFF;" d="M379.668,399.36H124.455c-10.634,0-19.298-8.665-19.298-19.298V124.455
	c0-10.634,8.665-19.298,19.298-19.298h255.606c10.634,0,19.298,8.665,19.298,19.298v255.606
	C399.36,390.695,390.695,399.36,379.668,399.36z"/>
<polygon style="fill:#2B3B4E;" points="365.489,367.458 135.877,367.458 135.877,137.452 153.994,137.452 153.994,348.948 
	365.489,348.948 "/>
<rect x="176.049" y="265.846" style="fill:#FF7058;" width="31.114" height="61.834"/>
<rect x="225.674" y="211.495" style="fill:#54C0EB;" width="31.114" height="115.791"/>
<rect x="275.298" y="252.455" style="fill:#FFD05B;" width="31.114" height="75.225"/>
<rect x="324.529" y="138.634" style="fill:#2C9984;" width="31.114" height="188.652"/>
</svg>