<?xml version="1.0" encoding="iso-8859-1"?>
<!-- Uploaded to: SVG Repo, www.svgrepo.com, Generator: SVG Repo Mixer Tools -->
<svg version="1.1" id="Layer_1" xmlns="http://www.w3.org/2000/svg" xmlns:xlink="http://www.w3.org/1999/xlink" 
	 viewBox="0 0 512 512" xml:space="preserve">
<path d="M469.32,396.8V102.4c0-7.072-5.728-12.8-12.8-12.8H55.536c-7.072,0-12.8,5.728-12.8,12.8l0,0v294.4H469.32z"/>
<rect y="396.8" style="fill:#D8D8D8;" width="512" height="8.536"/>
<polygon style="fill:#BCBCBC;" points="486.4,422.4 25.6,422.4 0,405.328 512,405.328 "/>
<g style="opacity:0.7;">
	<path style="fill:#FFFFFF;" d="M299.04,396.8h-86.08c0.752,4.864,4.912,8.48,9.832,8.536h66.4
		C294.12,405.28,298.288,401.672,299.04,396.8z"/>
</g>
<g>
	<g style="opacity:0.12;">
		<rect x="56.24" y="107.2" style="fill:#FFFFFF;" width="16" height="16"/>
		<rect x="91.072" y="107.2" style="fill:#FFFFFF;" width="16" height="16"/>
		<rect x="125.944" y="107.2" style="fill:#FFFFFF;" width="16" height="16"/>
		<rect x="160.8" y="107.2" style="fill:#FFFFFF;" width="16" height="16"/>
		<rect x="195.688" y="107.2" style="fill:#FFFFFF;" width="16" height="16"/>
		<rect x="230.56" y="107.2" style="fill:#FFFFFF;" width="16" height="16"/>
		<rect x="265.44" y="107.2" style="fill:#FFFFFF;" width="16" height="16"/>
		<rect x="300.312" y="107.2" style="fill:#FFFFFF;" width="16" height="16"/>
		<rect x="335.184" y="107.2" style="fill:#FFFFFF;" width="16" height="16"/>
		<rect x="370.08" y="107.2" style="fill:#FFFFFF;" width="16" height="16"/>
		<rect x="404.928" y="107.2" style="fill:#FFFFFF;" width="16" height="16"/>
		<rect x="439.8" y="107.2" style="fill:#FFFFFF;" width="16" height="16"/>
		<rect x="56.24" y="139.2" style="fill:#FFFFFF;" width="16" height="16"/>
		<rect x="91.072" y="139.2" style="fill:#FFFFFF;" width="16" height="16"/>
		<rect x="125.944" y="139.2" style="fill:#FFFFFF;" width="16" height="16"/>
		<rect x="160.8" y="139.2" style="fill:#FFFFFF;" width="16" height="16"/>
		<rect x="195.688" y="139.2" style="fill:#FFFFFF;" width="16" height="16"/>
		<rect x="230.56" y="139.2" style="fill:#FFFFFF;" width="16" height="16"/>
		<rect x="265.44" y="139.2" style="fill:#FFFFFF;" width="16" height="16"/>
		<rect x="300.312" y="139.2" style="fill:#FFFFFF;" width="16" height="16"/>
		<rect x="335.184" y="139.2" style="fill:#FFFFFF;" width="16" height="16"/>
		<rect x="370.08" y="139.2" style="fill:#FFFFFF;" width="16" height="16"/>
		<rect x="404.928" y="139.2" style="fill:#FFFFFF;" width="16" height="16"/>
		<rect x="439.8" y="139.2" style="fill:#FFFFFF;" width="16" height="16"/>
		<rect x="56.24" y="171.2" style="fill:#FFFFFF;" width="16" height="16"/>
		<rect x="91.072" y="171.2" style="fill:#FFFFFF;" width="16" height="16"/>
		<rect x="125.944" y="171.2" style="fill:#FFFFFF;" width="16" height="16"/>
		<rect x="160.8" y="171.2" style="fill:#FFFFFF;" width="16" height="16"/>
		<rect x="195.688" y="171.2" style="fill:#FFFFFF;" width="16" height="16"/>
		<rect x="230.56" y="171.2" style="fill:#FFFFFF;" width="16" height="16"/>
		<rect x="265.44" y="171.2" style="fill:#FFFFFF;" width="16" height="16"/>
		<rect x="300.312" y="171.2" style="fill:#FFFFFF;" width="16" height="16"/>
		<rect x="335.184" y="171.2" style="fill:#FFFFFF;" width="16" height="16"/>
		<rect x="370.08" y="171.2" style="fill:#FFFFFF;" width="16" height="16"/>
		<rect x="404.928" y="171.2" style="fill:#FFFFFF;" width="16" height="16"/>
		<rect x="439.8" y="171.2" style="fill:#FFFFFF;" width="16" height="16"/>
		<rect x="56.24" y="203.2" style="fill:#FFFFFF;" width="16" height="16"/>
		<rect x="91.072" y="203.2" style="fill:#FFFFFF;" width="16" height="16"/>
		<rect x="125.944" y="203.2" style="fill:#FFFFFF;" width="16" height="16"/>
		<rect x="160.8" y="203.2" style="fill:#FFFFFF;" width="16" height="16"/>
		<rect x="195.688" y="203.2" style="fill:#FFFFFF;" width="16" height="16"/>
		<rect x="230.56" y="203.2" style="fill:#FFFFFF;" width="16" height="16"/>
		<rect x="265.44" y="203.2" style="fill:#FFFFFF;" width="16" height="16"/>
		<rect x="300.312" y="203.2" style="fill:#FFFFFF;" width="16" height="16"/>
		<rect x="335.184" y="203.2" style="fill:#FFFFFF;" width="16" height="16"/>
		<rect x="370.08" y="203.2" style="fill:#FFFFFF;" width="16" height="16"/>
		<rect x="404.928" y="203.2" style="fill:#FFFFFF;" width="16" height="16"/>
		<rect x="439.8" y="203.2" style="fill:#FFFFFF;" width="16" height="16"/>
		<rect x="56.24" y="235.2" style="fill:#FFFFFF;" width="16" height="16"/>
		<rect x="91.072" y="235.2" style="fill:#FFFFFF;" width="16" height="16"/>
		<rect x="125.944" y="235.2" style="fill:#FFFFFF;" width="16" height="16"/>
		<rect x="160.8" y="235.2" style="fill:#FFFFFF;" width="16" height="16"/>
		<rect x="195.688" y="235.2" style="fill:#FFFFFF;" width="16" height="16"/>
		<rect x="230.56" y="235.2" style="fill:#FFFFFF;" width="16" height="16"/>
		<rect x="265.44" y="235.2" style="fill:#FFFFFF;" width="16" height="16"/>
		<rect x="300.312" y="235.2" style="fill:#FFFFFF;" width="16" height="16"/>
		<rect x="335.184" y="235.2" style="fill:#FFFFFF;" width="16" height="16"/>
		<rect x="370.08" y="235.2" style="fill:#FFFFFF;" width="16" height="16"/>
		<rect x="404.928" y="235.2" style="fill:#FFFFFF;" width="16" height="16"/>
		<rect x="439.8" y="235.2" style="fill:#FFFFFF;" width="16" height="16"/>
		<rect x="56.24" y="267.2" style="fill:#FFFFFF;" width="16" height="16"/>
		<rect x="91.072" y="267.2" style="fill:#FFFFFF;" width="16" height="16"/>
		<rect x="125.944" y="267.2" style="fill:#FFFFFF;" width="16" height="16"/>
		<rect x="160.8" y="267.2" style="fill:#FFFFFF;" width="16" height="16"/>
		<rect x="195.688" y="267.2" style="fill:#FFFFFF;" width="16" height="16"/>
		<rect x="230.56" y="267.2" style="fill:#FFFFFF;" width="16" height="16"/>
		<rect x="265.44" y="267.2" style="fill:#FFFFFF;" width="16" height="16"/>
		<rect x="300.312" y="267.2" style="fill:#FFFFFF;" width="16" height="16"/>
		<rect x="335.184" y="267.2" style="fill:#FFFFFF;" width="16" height="16"/>
		<rect x="370.08" y="267.2" style="fill:#FFFFFF;" width="16" height="16"/>
		<rect x="404.928" y="267.2" style="fill:#FFFFFF;" width="16" height="16"/>
		<rect x="439.8" y="267.2" style="fill:#FFFFFF;" width="16" height="16"/>
		<rect x="56.24" y="299.2" style="fill:#FFFFFF;" width="16" height="16"/>
		<rect x="91.072" y="299.2" style="fill:#FFFFFF;" width="16" height="16"/>
		<rect x="125.944" y="299.2" style="fill:#FFFFFF;" width="16" height="16"/>
		<rect x="160.8" y="299.2" style="fill:#FFFFFF;" width="16" height="16"/>
		<rect x="195.688" y="299.2" style="fill:#FFFFFF;" width="16" height="16"/>
		<rect x="230.56" y="299.2" style="fill:#FFFFFF;" width="16" height="16"/>
		<rect x="265.44" y="299.2" style="fill:#FFFFFF;" width="16" height="16"/>
		<rect x="300.312" y="299.2" style="fill:#FFFFFF;" width="16" height="16"/>
		<rect x="335.184" y="299.2" style="fill:#FFFFFF;" width="16" height="16"/>
		<rect x="370.08" y="299.2" style="fill:#FFFFFF;" width="16" height="16"/>
		<rect x="404.928" y="299.2" style="fill:#FFFFFF;" width="16" height="16"/>
		<rect x="439.8" y="299.2" style="fill:#FFFFFF;" width="16" height="16"/>
		<rect x="56.24" y="331.2" style="fill:#FFFFFF;" width="16" height="16"/>
		<rect x="91.072" y="331.2" style="fill:#FFFFFF;" width="16" height="16"/>
		<rect x="125.944" y="331.2" style="fill:#FFFFFF;" width="16" height="16"/>
		<rect x="160.8" y="331.2" style="fill:#FFFFFF;" width="16" height="16"/>
		<rect x="195.688" y="331.2" style="fill:#FFFFFF;" width="16" height="16"/>
		<rect x="230.56" y="331.2" style="fill:#FFFFFF;" width="16" height="16"/>
		<rect x="265.44" y="331.2" style="fill:#FFFFFF;" width="16" height="16"/>
		<rect x="300.312" y="331.2" style="fill:#FFFFFF;" width="16" height="16"/>
		<rect x="335.184" y="331.2" style="fill:#FFFFFF;" width="16" height="16"/>
		<rect x="370.08" y="331.2" style="fill:#FFFFFF;" width="16" height="16"/>
		<rect x="404.928" y="331.2" style="fill:#FFFFFF;" width="16" height="16"/>
		<rect x="439.8" y="331.2" style="fill:#FFFFFF;" width="16" height="16"/>
		<rect x="56.24" y="363.2" style="fill:#FFFFFF;" width="16" height="16"/>
		<rect x="91.072" y="363.2" style="fill:#FFFFFF;" width="16" height="16"/>
		<rect x="125.944" y="363.2" style="fill:#FFFFFF;" width="16" height="16"/>
		<rect x="160.8" y="363.2" style="fill:#FFFFFF;" width="16" height="16"/>
		<rect x="195.688" y="363.2" style="fill:#FFFFFF;" width="16" height="16"/>
		<rect x="230.56" y="363.2" style="fill:#FFFFFF;" width="16" height="16"/>
		<rect x="265.44" y="363.2" style="fill:#FFFFFF;" width="16" height="16"/>
		<rect x="300.312" y="363.2" style="fill:#FFFFFF;" width="16" height="16"/>
		<rect x="335.184" y="363.2" style="fill:#FFFFFF;" width="16" height="16"/>
		<rect x="370.08" y="363.2" style="fill:#FFFFFF;" width="16" height="16"/>
		<rect x="404.928" y="363.2" style="fill:#FFFFFF;" width="16" height="16"/>
		<rect x="439.8" y="363.2" style="fill:#FFFFFF;" width="16" height="16"/>
	</g>
	<path style="fill:#FFFFFF;" d="M256,141.104c24.304,0,44,19.696,44,44s-19.696,44-44,44s-44-19.696-44-44
		C212.024,160.816,231.712,141.128,256,141.104 M256,135.104c-27.608,0-49.992,22.384-49.992,49.992s22.384,49.992,49.992,49.992
		s49.992-22.384,49.992-49.992S283.608,135.104,256,135.104L256,135.104z"/>
	<path style="fill:#FFFFFF;" d="M201.6,252.848l42.64,92.44h-83.576v-51.424c0-33.512,30.072-39.832,40.952-41.016 M205.328,246.576
		c0,0-50.664,0.672-50.664,47.288v57.424H253.6L205.328,246.576L205.328,246.576z"/>
	<path style="fill:#FFFFFF;" d="M310.4,252.848c10.88,1.184,40.952,7.504,40.952,41.016v51.424h-83.616L310.4,252.848
		 M306.688,246.576L258.4,351.288h98.936v-57.424c0-46.616-50.664-47.288-50.664-47.288L306.688,246.576z"/>
</g>
<polygon style="fill:#E21B1B;" points="256,246.576 221.208,246.576 256,323.592 290.792,246.576 "/>
</svg>